<?xml version="1.0" encoding="UTF-8" standalone="no"?>
<svg
   width="186.53618"
   height="51.96896"
   viewBox="0 0 148.29626 36.031812"
   fill="none"
   version="1.1"
   id="svg39"
   xml:space="preserve"
   xmlns="http://www.w3.org/2000/svg"
   xmlns:svg="http://www.w3.org/2000/svg"><path
     d="m 14.663446,-3.8018049 c 0.7653,0.005 1.5302,0.0106 2.2604,0.0106 h 7.4291 c 0.7301,0 1.495,-0.005 2.2603,-0.0106 2.0604,-0.0143 4.1238,-0.0287 5.5204,0.0607 5.083901,0.325579 8.590101,3.40599898 9.040901,8.640179 0.1069,1.8809 0.1043,4.1467 0.1013,6.8187999 v 8e-4 c -6e-4,0.4586 -0.0011,0.9292 -0.0011,1.4119 v 7.4291 c 0,0.4827 5e-4,0.9533 0.0011,1.4119 0.003,2.6725 0.0056,4.9386 -0.1013,6.8196 -0.4508,5.2342 -3.957,8.3147 -9.040901,8.6402 -1.3966,0.0895 -3.46,0.0751 -5.5204,0.0608 -0.7653,-0.0054 -1.5302,-0.0107 -2.2603,-0.0107 h -7.4291 c -0.7302,0 -1.4951,0.0053 -2.2604,0.0107 -2.0603,0.0143 -4.1237,0.0287 -5.5203,-0.0608 -5.08395,-0.3255 -8.59012001,-3.406 -9.04092001,-8.6402 -0.10688,-1.8809 -0.10429,-4.1467 -0.1012499948,-6.8188 v -8e-4 c 5.299948e-4,-0.4586 0.001099995,-0.9292 0.001099995,-1.4119 v -7.4291 c 0,-0.4827 -5.3e-4,-0.9533 -0.001099995,-1.4119 v -8e-4 C -0.00202401,9.0457741 -0.00462401,6.7799741 0.10222599,4.8990741 c 0.4508,-5.23418002 3.95697001,-8.3146 9.04092001,-8.640179 1.3966,-0.0894 3.46,-0.0751 5.5203,-0.0607 z"
     fill="url(#paint0_linear_2973_971)"
     id="path1"
     style="fill:url(#paint0_linear_2973_971)" /><defs
     id="defs39"><linearGradient
       id="paint0_linear_2973_971"
       x1="25.6472"
       y1="5.0088201"
       x2="25.6472"
       y2="46.3241"
       gradientUnits="userSpaceOnUse"
       gradientTransform="translate(-5.008854,-8.8212949)"><stop
         stop-color="#A4C1FF"
         id="stop30" /><stop
         offset="1"
         stop-color="#0E78F9"
         id="stop31" /></linearGradient></defs><text
     xml:space="preserve"
     style="font-weight:800;font-size:33.846px;font-family:Geist;-inkscape-font-specification:'Geist Ultra-Bold';text-align:start;writing-mode:lr-tb;direction:ltr;text-anchor:start;fill:#ffffff;stroke:#ffffff;stroke-width:0.795004"
     x="44.657246"
     y="29.236023"
     id="text39"
     transform="scale(0.99303071,1.0070182)"><tspan
       id="tspan39"
       style="font-style:normal;font-variant:normal;font-weight:bold;font-stretch:normal;font-family:Poppins;-inkscape-font-specification:'Poppins Bold';fill:#ffffff;stroke-width:0.795004"
       x="44.657246"
       y="29.236023">ROOM</tspan></text><style
     type="text/css"
     id="style1">.st0{fill-rule:evenodd;clip-rule:evenodd;fill:#393939;} .st1{fill-rule:evenodd;clip-rule:evenodd;fill:#0079FE;}</style><g
     id="g2"
     transform="matrix(0.23352109,0,0,0.23352109,6.502679,5.7449591)"
     style="fill:#ffffff;stroke-width:3.4044"><path
       class="st0"
       d="m 30.93,45.92 c 3.77,6.81 8.12,13.34 13.78,19.31 5.66,6 12.7,11.46 21.83,16.11 0.67,0.34 1.31,0.34 1.89,0.1 0.88,-0.34 1.75,-1.04 2.63,-1.92 0.67,-0.68 1.52,-1.75 2.39,-2.93 3.5,-4.62 7.85,-10.34 13.98,-7.48 0.13,0.07 0.24,0.13 0.37,0.2 l 20.45,11.76 c 0.07,0.03 0.13,0.1 0.2,0.13 2.7,1.85 3.81,4.72 3.84,7.95 0,3.3 -1.21,7.01 -3,10.14 -2.36,4.14 -5.83,6.87 -9.84,8.69 -3.81,1.75 -8.05,2.7 -12.13,3.3 -6.4,0.94 -12.4,0.34 -18.53,-1.55 -6,-1.85 -12.03,-4.92 -18.63,-9 l -0.47,-0.3 c -3.03,-1.89 -6.3,-3.91 -9.5,-6.3 C 28.43,85.27 16.47,72.46 8.69,58.38 2.15,46.56 -1.42,33.79 0.53,21.63 1.61,14.96 4.48,8.89 9.46,4.88 13.81,1.38 19.67,-0.54 27.25,0.13 28.13,0.2 28.9,0.7 29.3,1.44 l 13.11,22.17 c 1.92,2.49 2.16,4.95 1.11,7.41 -0.88,2.02 -2.63,3.88 -5.02,5.63 -0.71,0.61 -1.55,1.21 -2.43,1.85 -2.93,2.12 -6.27,4.58 -5.12,7.48 z"
       id="path1-8"
       style="fill:#ffffff;stroke-width:3.4044" /><path
       class="st1"
       d="m 70.93,1.67 h 29.54 c 2.94,0 5.35,2.41 5.35,5.35 v 5.7 L 122.87,2.47 v 32.35 l -17.05,-9.2 v 7.42 c 0,2.94 -2.41,5.35 -5.35,5.35 H 70.93 c -2.95,0 -5.36,-2.41 -5.36,-5.35 V 7.02 c 0,-2.94 2.41,-5.35 5.36,-5.35 z"
       id="path2-9"
       style="fill:#ffffff;stroke-width:3.4044" /></g></svg>
